{"title":"Deadpool.2016.WEBRip.480p.x264.AAC-VYTO [P2PDL]","uid":14438626,"size":426375426,"categoryP":"video","categoryS":"movies","magnet":"?xt=urn:btih:3cfcd599e7224f64e3300fff0abd583d78659ce0&amp;dn=Deadpool.2016.WEBRip.480p.x264.AAC-VYTO+%5BP2PDL%5D&amp;tr=udp%3A%2F%2Ftracker.leechers-paradise.org%3A6969&amp;tr=udp%3A%2F%2Fzer0day.ch%3A1337&amp;tr=udp%3A%2F%2Fopen.demonii.com%3A1337&amp;tr=udp%3A%2F%2Ftracker.coppersurfer.tk%3A6969&amp;tr=udp%3A%2F%2Fexodus.desync.com%3A6969","seeders":0,"leechers":4,"uploader":"VYTOP2PDL","files":7,"time":1461656717,"description":"____    ____ ____    ____ .___________.  ______   \r\n     /   /      /   / |           | /  __    \r\n    /   /      /   /  `---|  |----`|  |  |  | \r\n        /     _    _/       |  |     |  |  |  | \r\n       /        |  |         |  |     |  `--'  | \r\n    __/         |__|         |__|      ______/  \r\n                                                  \r\nPresenting Small Encodes with quality for years!\r\n                                                                                                   \r\n                                                                                                   \r\n\r\n\r\nDeadpool.2016.WEBRip.480p.x264.AAC-VYTO\r\n\r\n\r\nGenre: Action, Adventure, Comedy  \nhttp://www.imdb.com/title/tt1431045/\r\n\r\n\r\nFormat                                   : MPEG-4\r\nFile size                                : 401 MiB\r\nDuration                                 : 1h 48mn\r\nOverall bit rate                         : 516 Kbps\r\n\r\nVideo\r\nFormat                                   : AVC\r\nBit rate                                 : 473 Kbps\r\nWidth                                    : 720 pixels\r\nHeight                                   : 304 pixels\r\nDisplay aspect ratio                     : 2.35:1\r\nFrame rate mode                          : Constant\r\nFrame rate                               : 23.976 fps\r\nBit depth                                : 8 bits\r\nStream size                              : 368 MiB (92%)\r\nWriting library                          : x264\r\n\r\nAudio\r\nFormat                                   : AAC\r\nBit rate mode                            : Variable\r\nBit rate                                 : 40.0 Kbps\r\nChannel(s)                               : 2 channels\r\nChannel positions                        : Front: L R\r\nSampling rate                            : 48.0 KHz\r\nStream size                              : 30.9 MiB (8%)\r\nLanguage                                 : English\r\n\r\nSubtitle                                 : Yes (English)\r\n\r\nScreen Shots: (Click links to view)\r\n \nhttps://ititli.com/XmX \nhttps://ititli.com/Xmq \nhttps://ititli.com/Xmr \nhttps://ititli.com/Xm1 \nhttps://ititli.com/XmT \nhttps://ititli.com/XmW \nhttps://ititli.com/Xmg \nhttps://ititli.com/Xmn \nhttps://ititli.com/Xmw \nhttps://ititli.com/Xm2 \nhttps://ititli.com/Xm6 \nhttps://ititli.com/Xm8\r\n\r\n----------------------------------------------------------------------------------------------------\r\n\r\n\r\nEncoder Notes: Looking For Early Access To Anything You Can Provide WEBDL, DVDScr, DVDR, BluRay,\r\nDirect Audio, Music Releases and Seedboxes. If You Got anything to offer please contact us.\r\n\r\nSupport us by donating BC - 1FgwdzPsd1y25Gea8wP1qni35uGCtmkRCD\r\n\r\nFind us and join us!","torrent":{"xt":"urn:btih:3cfcd599e7224f64e3300fff0abd583d78659ce0","amp;dn":"Deadpool.2016.WEBRip.480p.x264.AAC-VYTO+%5BP2PDL%5D","amp;tr":["udp%3A%2F%2Ftracker.leechers-paradise.org%3A6969","udp%3A%2F%2Fzer0day.ch%3A1337","udp%3A%2F%2Fopen.demonii.com%3A1337","udp%3A%2F%2Ftracker.coppersurfer.tk%3A6969","udp%3A%2F%2Fexodus.desync.com%3A6969"],"infoHash":"3cfcd599e7224f64e3300fff0abd583d78659ce0","infoHashBuffer":{"type":"Buffer","data":[60,252,213,153,231,34,79,100,227,48,15,255,10,189,88,61,120,101,156,224]},"announce":[],"urlList":[]}}